<svg width="28" height="35" viewBox="0 0 28 35" fill="none" xmlns="http://www.w3.org/2000/svg">
<path id="2631050154__x3C_Trazado_x5F_compuesto_x3E_" d="M18.7186 29.9502L16.8376 30.7096L18.7602 31.3565L23.2493 32.8668V33.2601H4.74935V32.8668L9.23851 31.3565L11.1611 30.7096L9.28013 29.9502L1.44118 26.7853C1.45183 26.6516 1.46696 26.4955 1.48845 26.3219C1.56213 25.727 1.70828 24.947 1.99406 24.1778C2.28108 23.4053 2.6938 22.6844 3.27625 22.1618C3.84292 21.6534 4.60245 21.3022 5.66602 21.3022H7.33268C8.29869 21.3022 9.07296 21.0561 9.67847 20.6487C10.2789 20.2446 10.6693 19.7118 10.9214 19.2028C11.1722 18.6966 11.2938 18.1996 11.3539 17.8356C11.3843 17.6517 11.3997 17.4969 11.4076 17.3852C11.4116 17.3292 11.4137 17.2836 11.4148 17.2502C11.4153 17.2335 11.4157 17.2198 11.4158 17.2093L11.416 17.196L11.416 17.1912L11.416 17.1893L11.416 17.1884C11.416 17.188 11.416 17.1877 10.666 17.1877H11.416V16.3297V15.9039L11.0504 15.6857C9.09836 14.5208 8.08268 11.9766 8.08268 8.77645C8.08268 6.55158 8.57993 4.62033 9.55052 3.26677C10.4977 1.94576 11.9349 1.11523 13.9993 1.11523C16.0638 1.11523 17.501 1.94576 18.4482 3.26677C19.4188 4.62033 19.916 6.55158 19.916 8.77645C19.916 11.9766 18.9003 14.5208 16.9483 15.6857L16.5827 15.9039V16.3297V17.1877H17.3327C16.5827 17.1877 16.5827 17.188 16.5827 17.1884L16.5827 17.1893L16.5827 17.1912L16.5827 17.196L16.5829 17.2093C16.583 17.2198 16.5834 17.2335 16.5839 17.2502C16.585 17.2836 16.5871 17.3292 16.5911 17.3852C16.599 17.4969 16.6144 17.6517 16.6448 17.8356C16.7049 18.1996 16.8265 18.6966 17.0773 19.2028C17.3294 19.7118 17.7198 20.2446 18.3202 20.6487C18.9257 21.0561 19.7 21.3022 20.666 21.3022H22.3327C23.3963 21.3022 24.1558 21.6534 24.7225 22.1618C25.3049 22.6844 25.7176 23.4053 26.0046 24.1778C26.2904 24.947 26.4366 25.727 26.5102 26.3219C26.5317 26.4955 26.5469 26.6516 26.5575 26.7853L18.7186 29.9502Z" stroke="#121212" stroke-width="1.5"/>
</svg>
